<?xml version="1.0" encoding="UTF-8" standalone="no"?>
<svg width="595" height="842" viewBox="0 0 595 842" fill="none" xmlns="http://www.w3.org/2000/svg">
  <rect width="595" height="842" fill="white"/>
  <rect x="40" y="40" width="515" height="60" fill="#1F2937"/>
  <rect x="40" y="120" width="515" height="12" fill="#4B5563"/>
  <rect x="40" y="144" width="515" height="12" fill="#4B5563"/>
  <rect x="40" y="168" width="400" height="12" fill="#4B5563"/>
  
  <rect x="40" y="200" width="515" height="200" fill="#F3F4F6"/>
  
  <rect x="40" y="420" width="515" height="12" fill="#4B5563"/>
  <rect x="40" y="444" width="515" height="12" fill="#4B5563"/>
  <rect x="40" y="468" width="440" height="12" fill="#4B5563"/>
  
  <rect x="40" y="500" width="20" height="20" rx="10" fill="#4B5563"/>
  <rect x="70" y="504" width="200" height="12" fill="#4B5563"/>
  
  <rect x="40" y="530" width="20" height="20" rx="10" fill="#4B5563"/>
  <rect x="70" y="534" width="300" height="12" fill="#4B5563"/>
  
  <rect x="40" y="560" width="20" height="20" rx="10" fill="#4B5563"/>
  <rect x="70" y="564" width="250" height="12" fill="#4B5563"/>
</svg> 